<svg height='300px' width='300px'  fill="#ffffff" xmlns="http://www.w3.org/2000/svg" xmlns:xlink="http://www.w3.org/1999/xlink" version="1.1" x="0px" y="0px" viewBox="0 0 100 100" enable-background="new 0 0 100 100" xml:space="preserve"><g><path d="M50,86c19.851,0,36-16.149,36-36c0-3.479-0.501-6.917-1.478-10.223c-0.052-0.982-1.167-2.774-24.535-3.321   c-0.001-0.145-0.005-0.291-0.005-0.435c0-1.344,0.093-2.954,0.267-4.774c0.412,0.082,0.842,0.129,1.294,0.129   c1.996,0,3.862-0.817,4.671-1.227c0.406,0.111,0.856,0.17,1.325,0.17c1.66,0,3.315-0.686,4.43-1.832   c1.049-1.081,1.578-2.513,1.53-4.142c-0.114-3.872-3.793-5.438-5.573-5.972c0.112-1.415-0.032-4.036-2.258-5.732   c-0.952-0.726-2.229-1.093-3.795-1.093c-1.558,0-3.088,0.364-4.032,0.644C56.752,10.138,53.921,8.25,50,8.25   s-6.752,1.888-7.841,3.942c-0.943-0.279-2.474-0.644-4.032-0.644c-1.566,0-2.843,0.367-3.795,1.093   c-2.226,1.696-2.37,4.317-2.258,5.732c-1.78,0.533-5.459,2.1-5.573,5.972c-0.048,1.629,0.481,3.062,1.531,4.142   c1.114,1.147,2.77,1.832,4.429,1.832c0.469,0,0.918-0.059,1.325-0.17c0.809,0.409,2.674,1.227,4.67,1.227c0,0,0,0,0.001,0   c0.452,0,0.882-0.047,1.293-0.129c0.175,1.827,0.269,3.438,0.269,4.774c0,0.14-0.006,0.291-0.008,0.434   c-23.391,0.549-24.483,2.344-24.532,3.325C14.5,43.084,14,46.521,14,50C14,69.851,30.149,86,50,86z M80.849,39.922   c-3.26,0.591-10.39,1.195-20.557,1.449c-0.089-0.87-0.175-1.869-0.234-2.912C71.142,38.727,77.809,39.367,80.849,39.922z    M38.456,29.376c-2.048,0-4.053-1.163-4.073-1.175c-0.272-0.16-0.606-0.183-0.898-0.06c-0.273,0.116-0.627,0.178-1.024,0.178   c-0.873,0-2.117-0.322-2.995-1.226c-0.673-0.693-0.999-1.598-0.966-2.689c0.1-3.379,4.819-4.287,4.865-4.295   c0.271-0.049,0.509-0.206,0.66-0.437c0.15-0.229,0.2-0.512,0.137-0.778c-0.007-0.031-0.701-3.074,1.383-4.661   c0.596-0.454,1.465-0.685,2.583-0.685c2.089,0,4.232,0.813,4.254,0.822c0.268,0.102,0.568,0.086,0.822-0.048   c0.254-0.133,0.44-0.369,0.508-0.647c0.349-1.423,2.53-3.426,6.289-3.426s5.94,2.003,6.289,3.426   c0.068,0.278,0.254,0.515,0.508,0.647c0.255,0.134,0.555,0.149,0.822,0.048c0.021-0.009,2.165-0.822,4.254-0.822   c1.118,0,1.987,0.23,2.583,0.685c2.064,1.572,1.389,4.634,1.383,4.661c-0.063,0.267-0.014,0.549,0.137,0.778   c0.15,0.23,0.389,0.388,0.66,0.437c0.047,0.009,4.765,0.896,4.865,4.295c0.032,1.091-0.293,1.996-0.966,2.689   c-0.877,0.903-2.122,1.226-2.995,1.226c-0.396,0-0.75-0.062-1.024-0.178c-0.293-0.123-0.626-0.102-0.9,0.061   c-0.02,0.012-2.007,1.174-4.072,1.174c-0.63,0-1.191-0.11-1.686-0.333c-0.02-0.011-0.034-0.027-0.054-0.037   c-0.199-0.093-0.385-0.205-0.561-0.333c-0.013-0.01-0.025-0.021-0.038-0.03c-0.148-0.111-0.288-0.239-0.421-0.378   c-0.037-0.038-0.073-0.076-0.108-0.116c-0.11-0.124-0.212-0.26-0.312-0.403c-0.035-0.052-0.073-0.1-0.107-0.153   c-0.125-0.197-0.242-0.406-0.35-0.638c-0.153-0.329-0.479-0.54-0.841-0.566c-0.023-0.002-0.046-0.002-0.07-0.002   c-0.027,0-0.053,0.008-0.08,0.011c-0.053,0.004-0.104,0.007-0.156,0.02c-0.025,0.007-0.047,0.018-0.072,0.025   c-0.056,0.019-0.112,0.037-0.164,0.065c-0.03,0.017-0.056,0.039-0.084,0.058c-0.042,0.028-0.085,0.054-0.122,0.088   c-0.063,0.058-0.121,0.122-0.168,0.195c-0.013,0.02-1.342,1.965-6.15,1.965s-6.138-1.945-6.139-1.945   c-0.188-0.319-0.53-0.513-0.911-0.491c-0.371,0.019-0.702,0.241-0.858,0.578c-0.107,0.231-0.225,0.44-0.35,0.637   c-0.035,0.056-0.073,0.104-0.109,0.157c-0.098,0.142-0.2,0.276-0.309,0.399c-0.036,0.041-0.074,0.081-0.112,0.12   c-0.131,0.136-0.269,0.262-0.416,0.372c-0.015,0.012-0.029,0.024-0.044,0.035c-0.176,0.128-0.361,0.239-0.559,0.332   c-0.02,0.009-0.034,0.025-0.053,0.035C39.647,29.266,39.086,29.376,38.456,29.376z M42.479,29.833   c0.017-0.016,0.033-0.032,0.049-0.049c0.242-0.237,0.473-0.492,0.681-0.782c0.393,0.299,0.917,0.615,1.588,0.9   c0.028,0.012,0.051,0.025,0.081,0.037c0.176,0.072,0.374,0.14,0.572,0.207c0.069,0.023,0.128,0.049,0.2,0.072   c0.182,0.057,0.385,0.106,0.584,0.157c0.104,0.026,0.197,0.058,0.307,0.083c0.201,0.045,0.426,0.08,0.645,0.118   c0.126,0.022,0.24,0.05,0.373,0.069c0.302,0.044,0.629,0.075,0.964,0.103c0.065,0.005,0.121,0.015,0.187,0.02   c0.407,0.028,0.837,0.044,1.292,0.044s0.885-0.016,1.292-0.044c0.066-0.005,0.122-0.015,0.187-0.02   c0.334-0.027,0.662-0.059,0.964-0.103c0.132-0.02,0.246-0.047,0.373-0.069c0.219-0.038,0.443-0.073,0.645-0.118   c0.109-0.025,0.202-0.057,0.307-0.083c0.199-0.051,0.403-0.101,0.584-0.157c0.072-0.023,0.131-0.049,0.2-0.072   c0.198-0.067,0.396-0.135,0.572-0.207c0.029-0.012,0.052-0.025,0.081-0.037c0.671-0.285,1.195-0.602,1.588-0.9   c0.208,0.289,0.439,0.544,0.681,0.782c0.017,0.016,0.033,0.032,0.049,0.048c0.249,0.238,0.51,0.455,0.792,0.639   c-0.219,2.133-0.331,3.998-0.331,5.551c0,0.458,0.011,0.923,0.026,1.386c0,0.002-0.001,0.003-0.001,0.005   c0,0.003,0.001,0.006,0.001,0.009c0.048,1.419,0.159,2.816,0.277,3.995c-0.701,0.014-1.424,0.025-2.151,0.035   c-0.185-1.637-0.54-5.062-0.51-6.978c0.008-0.553-0.432-1.007-0.984-1.016c-0.509-0.004-1.007,0.433-1.016,0.984   c-0.031,1.973,0.304,5.289,0.499,7.031c-1.019,0.01-2.059,0.016-3.124,0.019V32.75c0-0.553-0.448-1-1-1s-1,0.447-1,1v8.742   c-1.065-0.003-2.105-0.009-3.124-0.019c0.195-1.742,0.53-5.059,0.499-7.031c-0.009-0.552-0.454-0.995-1.016-0.984   c-0.552,0.009-0.993,0.463-0.984,1.016c0.03,1.915-0.325,5.341-0.51,6.978c-0.725-0.01-1.446-0.021-2.146-0.034   c0.194-1.95,0.298-3.767,0.298-5.396c0-1.545-0.111-3.41-0.332-5.55C41.968,30.288,42.229,30.071,42.479,29.833z M39.944,38.459   c-0.05,0.926-0.127,1.898-0.23,2.912c-10.169-0.254-17.301-0.858-20.562-1.449C22.193,39.367,28.859,38.727,39.944,38.459z    M17.1,41.479c1.425,0.445,4.098,0.872,9.117,1.258c4.072,0.313,9.007,0.534,14.384,0.654c0.005,0,0.01,0.001,0.015,0.001   c0.001,0,0.002-0.001,0.003-0.001c1.282,0.029,2.594,0.05,3.922,0.067c0.03,0.006,0.055,0.024,0.086,0.028   c0.042,0.006,0.083,0.008,0.125,0.008c0.061,0,0.116-0.021,0.174-0.032c1.668,0.02,3.356,0.032,5.074,0.032   s3.406-0.013,5.074-0.032c0.058,0.011,0.113,0.032,0.174,0.032c0.041,0,0.083-0.002,0.125-0.008   c0.031-0.004,0.056-0.022,0.086-0.028c6.903-0.087,13.276-0.334,18.323-0.722c5.019-0.386,7.692-0.813,9.117-1.259   C83.616,44.252,84,47.108,84,50c0,18.748-15.252,34-34,34S16,68.748,16,50C16,47.107,16.384,44.25,17.1,41.479z"></path><circle cx="32.5" cy="52.5" r="5"></circle><circle cx="67.5" cy="52.5" r="5"></circle><path d="M50,78.5c4.687,0,8.5-3.813,8.5-8.5s-3.813-8.5-8.5-8.5s-8.5,3.813-8.5,8.5S45.313,78.5,50,78.5z M50,63.5   c3.584,0,6.5,2.916,6.5,6.5s-2.916,6.5-6.5,6.5s-6.5-2.916-6.5-6.5S46.416,63.5,50,63.5z"></path></g></svg>