<svg width="479" height="120" viewBox="0 0 479 120" fill="none" xmlns="http://www.w3.org/2000/svg">
<path d="M39.5 119.05C32.2 119.05 25.6 117.8 19.7 115.3C13.9 112.8 9.3 109.2 5.9 104.5C2.5 99.8 0.75 94.25 0.65 87.85H23.15C23.45 92.15 24.95 95.55 27.65 98.05C30.45 100.55 34.25 101.8 39.05 101.8C43.95 101.8 47.8 100.65 50.6 98.35C53.4 95.95 54.8 92.85 54.8 89.05C54.8 85.95 53.85 83.4 51.95 81.4C50.05 79.4 47.65 77.85 44.75 76.75C41.95 75.55 38.05 74.25 33.05 72.85C26.25 70.85 20.7 68.9 16.4 67C12.2 65 8.55 62.05 5.45 58.15C2.45 54.15 0.95 48.85 0.95 42.25C0.95 36.05 2.5 30.65 5.6 26.05C8.7 21.45 13.05 17.95 18.65 15.55C24.25 13.05 30.65 11.8 37.85 11.8C48.65 11.8 57.4 14.45 64.1 19.75C70.9 24.95 74.65 32.25 75.35 41.65H52.25C52.05 38.05 50.5 35.1 47.6 32.8C44.8 30.4 41.05 29.2 36.35 29.2C32.25 29.2 28.95 30.25 26.45 32.35C24.05 34.45 22.85 37.5 22.85 41.5C22.85 44.3 23.75 46.65 25.55 48.55C27.45 50.35 29.75 51.85 32.45 53.05C35.25 54.15 39.15 55.45 44.15 56.95C50.95 58.95 56.5 60.95 60.8 62.95C65.1 64.95 68.8 67.95 71.9 71.95C75 75.95 76.55 81.2 76.55 87.7C76.55 93.3 75.1 98.5 72.2 103.3C69.3 108.1 65.05 111.95 59.45 114.85C53.85 117.65 47.2 119.05 39.5 119.05ZM120.706 52.15V92.35C120.706 95.15 121.356 97.2 122.656 98.5C124.056 99.7 126.356 100.3 129.556 100.3H139.306V118H126.106C108.406 118 99.5563 109.4 99.5563 92.2V52.15H89.6563V34.9H99.5563V14.35H120.706V34.9H139.306V52.15H120.706ZM176.911 47.8C179.611 43.4 183.111 39.95 187.411 37.45C191.811 34.95 196.811 33.7 202.411 33.7V55.75H196.861C190.261 55.75 185.261 57.3 181.861 60.4C178.561 63.5 176.911 68.9 176.911 76.6V118H155.911V34.9H176.911V47.8ZM228.705 25C225.005 25 221.905 23.85 219.405 21.55C217.005 19.15 215.805 16.2 215.805 12.7C215.805 9.19999 217.005 6.29999 219.405 3.99999C221.905 1.59999 225.005 0.399994 228.705 0.399994C232.405 0.399994 235.455 1.59999 237.855 3.99999C240.355 6.29999 241.605 9.19999 241.605 12.7C241.605 16.2 240.355 19.15 237.855 21.55C235.455 23.85 232.405 25 228.705 25ZM239.055 34.9V118H218.055V34.9H239.055ZM255.903 76.15C255.903 67.75 257.553 60.3 260.853 53.8C264.253 47.3 268.853 42.3 274.653 38.8C280.453 35.3 286.903 33.55 294.003 33.55C299.403 33.55 304.553 34.75 309.453 37.15C314.353 39.45 318.253 42.55 321.153 46.45V7H342.453V118H321.153V105.7C318.553 109.8 314.903 113.1 310.203 115.6C305.503 118.1 300.053 119.35 293.853 119.35C286.853 119.35 280.453 117.55 274.653 113.95C268.853 110.35 264.253 105.3 260.853 98.8C257.553 92.2 255.903 84.65 255.903 76.15ZM321.303 76.45C321.303 71.35 320.303 67 318.303 63.4C316.303 59.7 313.603 56.9 310.203 55C306.803 53 303.153 52 299.253 52C295.353 52 291.753 52.95 288.453 54.85C285.153 56.75 282.453 59.55 280.353 63.25C278.353 66.85 277.353 71.15 277.353 76.15C277.353 81.15 278.353 85.55 280.353 89.35C282.453 93.05 285.153 95.9 288.453 97.9C291.853 99.9 295.453 100.9 299.253 100.9C303.153 100.9 306.803 99.95 310.203 98.05C313.603 96.05 316.303 93.25 318.303 89.65C320.303 85.95 321.303 81.55 321.303 76.45ZM441.713 74.65C441.713 77.65 441.513 80.35 441.113 82.75H380.363C380.863 88.75 382.963 93.45 386.663 96.85C390.363 100.25 394.913 101.95 400.313 101.95C408.113 101.95 413.663 98.6 416.963 91.9H439.613C437.213 99.9 432.613 106.5 425.813 111.7C419.013 116.8 410.663 119.35 400.763 119.35C392.763 119.35 385.563 117.6 379.163 114.1C372.863 110.5 367.913 105.45 364.313 98.95C360.813 92.45 359.063 84.95 359.063 76.45C359.063 67.85 360.813 60.3 364.313 53.8C367.813 47.3 372.713 42.3 379.013 38.8C385.313 35.3 392.563 33.55 400.763 33.55C408.663 33.55 415.713 35.25 421.913 38.65C428.213 42.05 433.063 46.9 436.463 53.2C439.963 59.4 441.713 66.55 441.713 74.65ZM419.963 68.65C419.863 63.25 417.913 58.95 414.113 55.75C410.313 52.45 405.663 50.8 400.163 50.8C394.963 50.8 390.563 52.4 386.963 55.6C383.463 58.7 381.313 63.05 380.513 68.65H419.963Z" fill="#232121"/>
<path d="M466.491 119.05C463.091 119.05 460.191 117.9 457.791 115.6C455.391 113.2 454.191 110.2 454.191 106.6C454.191 102.9 455.341 99.9 457.641 97.6C460.041 95.3 462.991 94.15 466.491 94.15C469.991 94.15 472.891 95.3 475.191 97.6C477.591 99.9 478.791 102.9 478.791 106.6C478.791 110.2 477.591 113.2 475.191 115.6C472.791 117.9 469.891 119.05 466.491 119.05Z" fill="#58C770"/>
</svg>
